<?xml version="1.0" encoding="UTF-8" standalone="no"?>
<!DOCTYPE svg PUBLIC "-//W3C//DTD SVG 1.1//EN"
 "http://www.w3.org/Graphics/SVG/1.1/DTD/svg11.dtd">
<!-- Generated by graphviz version 2.40.1 (20161225.0304)
 -->
<!-- Title: Tree Pages: 1 -->
<svg width="964pt" height="789pt"
 viewBox="0.00 0.00 964.00 789.00" xmlns="http://www.w3.org/2000/svg" xmlns:xlink="http://www.w3.org/1999/xlink">
<g id="graph0" class="graph" transform="scale(1 1) rotate(0) translate(4 785)">
<title>Tree</title>
<polygon fill="#ffffff" stroke="transparent" points="-4,4 -4,-785 960,-785 960,4 -4,4"/>
<!-- 0 -->
<g id="node1" class="node">
<title>0</title>
<polygon fill="#8ec7f0" stroke="#000000" points="688.5,-781 564.5,-781 564.5,-713 688.5,-713 688.5,-781"/>
<text text-anchor="middle" x="626.5" y="-765.8" font-family="Times,serif" font-size="14.00" fill="#000000">Amount &lt;= 6750.0</text>
<text text-anchor="middle" x="626.5" y="-750.8" font-family="Times,serif" font-size="14.00" fill="#000000">gini = 0.42</text>
<text text-anchor="middle" x="626.5" y="-735.8" font-family="Times,serif" font-size="14.00" fill="#000000">samples = 800</text>
<text text-anchor="middle" x="626.5" y="-720.8" font-family="Times,serif" font-size="14.00" fill="#000000">value = [240, 560]</text>
</g>
<!-- 1 -->
<g id="node2" class="node">
<title>1</title>
<polygon fill="#83c2ef" stroke="#000000" points="609,-677 430,-677 430,-609 609,-609 609,-677"/>
<text text-anchor="middle" x="519.5" y="-661.8" font-family="Times,serif" font-size="14.00" fill="#000000">CreditHistory.Critical &lt;= 0.5</text>
<text text-anchor="middle" x="519.5" y="-646.8" font-family="Times,serif" font-size="14.00" fill="#000000">gini = 0.396</text>
<text text-anchor="middle" x="519.5" y="-631.8" font-family="Times,serif" font-size="14.00" fill="#000000">samples = 710</text>
<text text-anchor="middle" x="519.5" y="-616.8" font-family="Times,serif" font-size="14.00" fill="#000000">value = [193, 517]</text>
</g>
<!-- 0&#45;&gt;1 -->
<g id="edge1" class="edge">
<title>0&#45;&gt;1</title>
<path fill="none" stroke="#000000" d="M591.4642,-712.9465C582.0419,-703.7884 571.7487,-693.7838 561.9696,-684.2788"/>
<polygon fill="#000000" stroke="#000000" points="564.2249,-681.59 554.6145,-677.13 559.346,-686.6097 564.2249,-681.59"/>
<text text-anchor="middle" x="554.9699" y="-698.4275" font-family="Times,serif" font-size="14.00" fill="#000000">True</text>
</g>
<!-- 2 -->
<g id="node17" class="node">
<title>2</title>
<polygon fill="#fdf4ee" stroke="#000000" points="841.5,-677 627.5,-677 627.5,-609 841.5,-609 841.5,-677"/>
<text text-anchor="middle" x="734.5" y="-661.8" font-family="Times,serif" font-size="14.00" fill="#000000">CheckingAccountStatus.lt.0 &lt;= 0.5</text>
<text text-anchor="middle" x="734.5" y="-646.8" font-family="Times,serif" font-size="14.00" fill="#000000">gini = 0.499</text>
<text text-anchor="middle" x="734.5" y="-631.8" font-family="Times,serif" font-size="14.00" fill="#000000">samples = 90</text>
<text text-anchor="middle" x="734.5" y="-616.8" font-family="Times,serif" font-size="14.00" fill="#000000">value = [47, 43]</text>
</g>
<!-- 0&#45;&gt;2 -->
<g id="edge16" class="edge">
<title>0&#45;&gt;2</title>
<path fill="none" stroke="#000000" d="M661.8632,-712.9465C671.3736,-703.7884 681.763,-693.7838 691.6335,-684.2788"/>
<polygon fill="#000000" stroke="#000000" points="694.2818,-686.5876 699.0573,-677.13 689.4263,-681.5453 694.2818,-686.5876"/>
<text text-anchor="middle" x="698.5857" y="-698.4255" font-family="Times,serif" font-size="14.00" fill="#000000">False</text>
</g>
<!-- 3 -->
<g id="node3" class="node">
<title>3</title>
<polygon fill="#97ccf1" stroke="#000000" points="453,-573 230,-573 230,-505 453,-505 453,-573"/>
<text text-anchor="middle" x="341.5" y="-557.8" font-family="Times,serif" font-size="14.00" fill="#000000">CheckingAccountStatus.none &lt;= 0.5</text>
<text text-anchor="middle" x="341.5" y="-542.8" font-family="Times,serif" font-size="14.00" fill="#000000">gini = 0.437</text>
<text text-anchor="middle" x="341.5" y="-527.8" font-family="Times,serif" font-size="14.00" fill="#000000">samples = 497</text>
<text text-anchor="middle" x="341.5" y="-512.8" font-family="Times,serif" font-size="14.00" fill="#000000">value = [160, 337]</text>
</g>
<!-- 1&#45;&gt;3 -->
<g id="edge2" class="edge">
<title>1&#45;&gt;3</title>
<path fill="none" stroke="#000000" d="M461.2161,-608.9465C444.466,-599.1599 426.0614,-588.4066 408.8138,-578.3294"/>
<polygon fill="#000000" stroke="#000000" points="410.3148,-575.1528 399.9148,-573.13 406.7834,-581.1968 410.3148,-575.1528"/>
</g>
<!-- 4 -->
<g id="node16" class="node">
<title>4</title>
<polygon fill="#5dafea" stroke="#000000" points="584,-565.5 471,-565.5 471,-512.5 584,-512.5 584,-565.5"/>
<text text-anchor="middle" x="527.5" y="-550.3" font-family="Times,serif" font-size="14.00" fill="#000000">gini = 0.262</text>
<text text-anchor="middle" x="527.5" y="-535.3" font-family="Times,serif" font-size="14.00" fill="#000000">samples = 213</text>
<text text-anchor="middle" x="527.5" y="-520.3" font-family="Times,serif" font-size="14.00" fill="#000000">value = [33, 180]</text>
</g>
<!-- 1&#45;&gt;4 -->
<g id="edge15" class="edge">
<title>1&#45;&gt;4</title>
<path fill="none" stroke="#000000" d="M522.1195,-608.9465C522.9414,-598.2621 523.8519,-586.4254 524.6866,-575.5742"/>
<polygon fill="#000000" stroke="#000000" points="528.1809,-575.7812 525.4583,-565.5422 521.2015,-575.2442 528.1809,-575.7812"/>
</g>
<!-- 5 -->
<g id="node4" class="node">
<title>5</title>
<polygon fill="#cce6f8" stroke="#000000" points="412.5,-469 182.5,-469 182.5,-401 412.5,-401 412.5,-469"/>
<text text-anchor="middle" x="297.5" y="-453.8" font-family="Times,serif" font-size="14.00" fill="#000000">SavingsAccountBonds.gt.1000 &lt;= 0.5</text>
<text text-anchor="middle" x="297.5" y="-438.8" font-family="Times,serif" font-size="14.00" fill="#000000">gini = 0.489</text>
<text text-anchor="middle" x="297.5" y="-423.8" font-family="Times,serif" font-size="14.00" fill="#000000">samples = 319</text>
<text text-anchor="middle" x="297.5" y="-408.8" font-family="Times,serif" font-size="14.00" fill="#000000">value = [136, 183]</text>
</g>
<!-- 3&#45;&gt;5 -->
<g id="edge3" class="edge">
<title>3&#45;&gt;5</title>
<path fill="none" stroke="#000000" d="M327.0928,-504.9465C323.5221,-496.5067 319.6472,-487.3479 315.9139,-478.5239"/>
<polygon fill="#000000" stroke="#000000" points="319.0595,-476.9759 311.9396,-469.13 312.6127,-479.7034 319.0595,-476.9759"/>
</g>
<!-- 6 -->
<g id="node15" class="node">
<title>6</title>
<polygon fill="#58ace9" stroke="#000000" points="544,-461.5 431,-461.5 431,-408.5 544,-408.5 544,-461.5"/>
<text text-anchor="middle" x="487.5" y="-446.3" font-family="Times,serif" font-size="14.00" fill="#000000">gini = 0.233</text>
<text text-anchor="middle" x="487.5" y="-431.3" font-family="Times,serif" font-size="14.00" fill="#000000">samples = 178</text>
<text text-anchor="middle" x="487.5" y="-416.3" font-family="Times,serif" font-size="14.00" fill="#000000">value = [24, 154]</text>
</g>
<!-- 3&#45;&gt;6 -->
<g id="edge14" class="edge">
<title>3&#45;&gt;6</title>
<path fill="none" stroke="#000000" d="M389.3059,-504.9465C406.1608,-492.9403 425.0581,-479.4791 441.7399,-467.5962"/>
<polygon fill="#000000" stroke="#000000" points="444.1247,-470.1947 450.2389,-461.5422 440.0633,-464.4933 444.1247,-470.1947"/>
</g>
<!-- 9 -->
<g id="node5" class="node">
<title>9</title>
<polygon fill="#d2e9f9" stroke="#000000" points="339.5,-365 219.5,-365 219.5,-297 339.5,-297 339.5,-365"/>
<text text-anchor="middle" x="279.5" y="-349.8" font-family="Times,serif" font-size="14.00" fill="#000000">Duration &lt;= 11.5</text>
<text text-anchor="middle" x="279.5" y="-334.8" font-family="Times,serif" font-size="14.00" fill="#000000">gini = 0.492</text>
<text text-anchor="middle" x="279.5" y="-319.8" font-family="Times,serif" font-size="14.00" fill="#000000">samples = 307</text>
<text text-anchor="middle" x="279.5" y="-304.8" font-family="Times,serif" font-size="14.00" fill="#000000">value = [134, 173]</text>
</g>
<!-- 5&#45;&gt;9 -->
<g id="edge4" class="edge">
<title>5&#45;&gt;9</title>
<path fill="none" stroke="#000000" d="M291.6061,-400.9465C290.1765,-392.6863 288.6276,-383.7374 287.1305,-375.0875"/>
<polygon fill="#000000" stroke="#000000" points="290.5613,-374.3866 285.4071,-365.13 283.6639,-375.5804 290.5613,-374.3866"/>
</g>
<!-- 10 -->
<g id="node14" class="node">
<title>10</title>
<polygon fill="#61b1ea" stroke="#000000" points="457,-357.5 358,-357.5 358,-304.5 457,-304.5 457,-357.5"/>
<text text-anchor="middle" x="407.5" y="-342.3" font-family="Times,serif" font-size="14.00" fill="#000000">gini = 0.278</text>
<text text-anchor="middle" x="407.5" y="-327.3" font-family="Times,serif" font-size="14.00" fill="#000000">samples = 12</text>
<text text-anchor="middle" x="407.5" y="-312.3" font-family="Times,serif" font-size="14.00" fill="#000000">value = [2, 10]</text>
</g>
<!-- 5&#45;&gt;10 -->
<g id="edge13" class="edge">
<title>5&#45;&gt;10</title>
<path fill="none" stroke="#000000" d="M333.5181,-400.9465C345.8675,-389.2707 359.6722,-376.219 371.9817,-364.5809"/>
<polygon fill="#000000" stroke="#000000" points="374.5646,-366.9556 379.4266,-357.5422 369.7555,-361.869 374.5646,-366.9556"/>
</g>
<!-- 11 -->
<g id="node6" class="node">
<title>11</title>
<polygon fill="#79bded" stroke="#000000" points="255.5,-261 17.5,-261 17.5,-193 255.5,-193 255.5,-261"/>
<text text-anchor="middle" x="136.5" y="-245.8" font-family="Times,serif" font-size="14.00" fill="#000000">CreditHistory.ThisBank.AllPaid &lt;= 0.5</text>
<text text-anchor="middle" x="136.5" y="-230.8" font-family="Times,serif" font-size="14.00" fill="#000000">gini = 0.37</text>
<text text-anchor="middle" x="136.5" y="-215.8" font-family="Times,serif" font-size="14.00" fill="#000000">samples = 49</text>
<text text-anchor="middle" x="136.5" y="-200.8" font-family="Times,serif" font-size="14.00" fill="#000000">value = [12, 37]</text>
</g>
<!-- 9&#45;&gt;11 -->
<g id="edge5" class="edge">
<title>9&#45;&gt;11</title>
<path fill="none" stroke="#000000" d="M232.6765,-296.9465C219.5902,-287.4293 205.247,-276.9978 191.7241,-267.163"/>
<polygon fill="#000000" stroke="#000000" points="193.5747,-264.1812 183.4287,-261.13 189.4575,-269.8423 193.5747,-264.1812"/>
</g>
<!-- 12 -->
<g id="node9" class="node">
<title>12</title>
<polygon fill="#ebf5fc" stroke="#000000" points="573.5,-261 273.5,-261 273.5,-193 573.5,-193 573.5,-261"/>
<text text-anchor="middle" x="423.5" y="-245.8" font-family="Times,serif" font-size="14.00" fill="#000000">Job.Management.SelfEmp.HighlyQualified &lt;= 0.5</text>
<text text-anchor="middle" x="423.5" y="-230.8" font-family="Times,serif" font-size="14.00" fill="#000000">gini = 0.499</text>
<text text-anchor="middle" x="423.5" y="-215.8" font-family="Times,serif" font-size="14.00" fill="#000000">samples = 258</text>
<text text-anchor="middle" x="423.5" y="-200.8" font-family="Times,serif" font-size="14.00" fill="#000000">value = [122, 136]</text>
</g>
<!-- 9&#45;&gt;12 -->
<g id="edge8" class="edge">
<title>9&#45;&gt;12</title>
<path fill="none" stroke="#000000" d="M326.651,-296.9465C339.8287,-287.4293 354.2722,-276.9978 367.8897,-267.163"/>
<polygon fill="#000000" stroke="#000000" points="370.1855,-269.8223 376.2431,-261.13 366.087,-264.1476 370.1855,-269.8223"/>
</g>
<!-- 17 -->
<g id="node7" class="node">
<title>17</title>
<polygon fill="#6ab6ec" stroke="#000000" points="99,-149.5 0,-149.5 0,-96.5 99,-96.5 99,-149.5"/>
<text text-anchor="middle" x="49.5" y="-134.3" font-family="Times,serif" font-size="14.00" fill="#000000">gini = 0.32</text>
<text text-anchor="middle" x="49.5" y="-119.3" font-family="Times,serif" font-size="14.00" fill="#000000">samples = 45</text>
<text text-anchor="middle" x="49.5" y="-104.3" font-family="Times,serif" font-size="14.00" fill="#000000">value = [9, 36]</text>
</g>
<!-- 11&#45;&gt;17 -->
<g id="edge6" class="edge">
<title>11&#45;&gt;17</title>
<path fill="none" stroke="#000000" d="M108.0129,-192.9465C98.43,-181.491 87.739,-168.711 78.1441,-157.2412"/>
<polygon fill="#000000" stroke="#000000" points="80.8045,-154.9666 71.7035,-149.5422 75.4354,-159.458 80.8045,-154.9666"/>
</g>
<!-- 18 -->
<g id="node8" class="node">
<title>18</title>
<polygon fill="#eeab7b" stroke="#000000" points="209.5,-149.5 117.5,-149.5 117.5,-96.5 209.5,-96.5 209.5,-149.5"/>
<text text-anchor="middle" x="163.5" y="-134.3" font-family="Times,serif" font-size="14.00" fill="#000000">gini = 0.375</text>
<text text-anchor="middle" x="163.5" y="-119.3" font-family="Times,serif" font-size="14.00" fill="#000000">samples = 4</text>
<text text-anchor="middle" x="163.5" y="-104.3" font-family="Times,serif" font-size="14.00" fill="#000000">value = [3, 1]</text>
</g>
<!-- 11&#45;&gt;18 -->
<g id="edge7" class="edge">
<title>11&#45;&gt;18</title>
<path fill="none" stroke="#000000" d="M145.3408,-192.9465C148.1433,-182.1519 151.251,-170.1813 154.0918,-159.2389"/>
<polygon fill="#000000" stroke="#000000" points="157.484,-160.1008 156.6092,-149.5422 150.7086,-158.3418 157.484,-160.1008"/>
</g>
<!-- 13 -->
<g id="node10" class="node">
<title>13</title>
<polygon fill="#fdfeff" stroke="#000000" points="512,-157 281,-157 281,-89 512,-89 512,-157"/>
<text text-anchor="middle" x="396.5" y="-141.8" font-family="Times,serif" font-size="14.00" fill="#000000">CheckingAccountStatus.gt.200 &lt;= 0.5</text>
<text text-anchor="middle" x="396.5" y="-126.8" font-family="Times,serif" font-size="14.00" fill="#000000">gini = 0.5</text>
<text text-anchor="middle" x="396.5" y="-111.8" font-family="Times,serif" font-size="14.00" fill="#000000">samples = 229</text>
<text text-anchor="middle" x="396.5" y="-96.8" font-family="Times,serif" font-size="14.00" fill="#000000">value = [114, 115]</text>
</g>
<!-- 12&#45;&gt;13 -->
<g id="edge9" class="edge">
<title>12&#45;&gt;13</title>
<path fill="none" stroke="#000000" d="M414.6592,-192.9465C412.5147,-184.6863 410.1914,-175.7374 407.9458,-167.0875"/>
<polygon fill="#000000" stroke="#000000" points="411.2613,-165.9296 405.3607,-157.13 404.4859,-167.6887 411.2613,-165.9296"/>
</g>
<!-- 14 -->
<g id="node13" class="node">
<title>14</title>
<polygon fill="#84c2ef" stroke="#000000" points="629,-149.5 530,-149.5 530,-96.5 629,-96.5 629,-149.5"/>
<text text-anchor="middle" x="579.5" y="-134.3" font-family="Times,serif" font-size="14.00" fill="#000000">gini = 0.4</text>
<text text-anchor="middle" x="579.5" y="-119.3" font-family="Times,serif" font-size="14.00" fill="#000000">samples = 29</text>
<text text-anchor="middle" x="579.5" y="-104.3" font-family="Times,serif" font-size="14.00" fill="#000000">value = [8, 21]</text>
</g>
<!-- 12&#45;&gt;14 -->
<g id="edge12" class="edge">
<title>12&#45;&gt;14</title>
<path fill="none" stroke="#000000" d="M474.5802,-192.9465C492.7548,-180.8301 513.152,-167.232 531.0956,-155.2696"/>
<polygon fill="#000000" stroke="#000000" points="533.3077,-158.0014 539.6868,-149.5422 529.4248,-152.177 533.3077,-158.0014"/>
</g>
<!-- 15 -->
<g id="node11" class="node">
<title>15</title>
<polygon fill="#fdf6f1" stroke="#000000" points="392.5,-53 272.5,-53 272.5,0 392.5,0 392.5,-53"/>
<text text-anchor="middle" x="332.5" y="-37.8" font-family="Times,serif" font-size="14.00" fill="#000000">gini = 0.499</text>
<text text-anchor="middle" x="332.5" y="-22.8" font-family="Times,serif" font-size="14.00" fill="#000000">samples = 212</text>
<text text-anchor="middle" x="332.5" y="-7.8" font-family="Times,serif" font-size="14.00" fill="#000000">value = [110, 102]</text>
</g>
<!-- 13&#45;&gt;15 -->
<g id="edge10" class="edge">
<title>13&#45;&gt;15</title>
<path fill="none" stroke="#000000" d="M373.936,-88.9777C368.1059,-80.187 361.8169,-70.7044 355.943,-61.8477"/>
<polygon fill="#000000" stroke="#000000" points="358.6838,-59.6478 350.2399,-53.2485 352.8502,-63.5167 358.6838,-59.6478"/>
</g>
<!-- 16 -->
<g id="node12" class="node">
<title>16</title>
<polygon fill="#76bbed" stroke="#000000" points="510,-53 411,-53 411,0 510,0 510,-53"/>
<text text-anchor="middle" x="460.5" y="-37.8" font-family="Times,serif" font-size="14.00" fill="#000000">gini = 0.36</text>
<text text-anchor="middle" x="460.5" y="-22.8" font-family="Times,serif" font-size="14.00" fill="#000000">samples = 17</text>
<text text-anchor="middle" x="460.5" y="-7.8" font-family="Times,serif" font-size="14.00" fill="#000000">value = [4, 13]</text>
</g>
<!-- 13&#45;&gt;16 -->
<g id="edge11" class="edge">
<title>13&#45;&gt;16</title>
<path fill="none" stroke="#000000" d="M419.064,-88.9777C424.8941,-80.187 431.1831,-70.7044 437.057,-61.8477"/>
<polygon fill="#000000" stroke="#000000" points="440.1498,-63.5167 442.7601,-53.2485 434.3162,-59.6478 440.1498,-63.5167"/>
</g>
<!-- 7 -->
<g id="node18" class="node">
<title>7</title>
<polygon fill="#bfdff7" stroke="#000000" points="838.5,-573 616.5,-573 616.5,-505 838.5,-505 838.5,-573"/>
<text text-anchor="middle" x="727.5" y="-557.8" font-family="Times,serif" font-size="14.00" fill="#000000">Purpose.Furniture.Equipment &lt;= 0.5</text>
<text text-anchor="middle" x="727.5" y="-542.8" font-family="Times,serif" font-size="14.00" fill="#000000">gini = 0.481</text>
<text text-anchor="middle" x="727.5" y="-527.8" font-family="Times,serif" font-size="14.00" fill="#000000">samples = 62</text>
<text text-anchor="middle" x="727.5" y="-512.8" font-family="Times,serif" font-size="14.00" fill="#000000">value = [25, 37]</text>
</g>
<!-- 2&#45;&gt;7 -->
<g id="edge17" class="edge">
<title>2&#45;&gt;7</title>
<path fill="none" stroke="#000000" d="M732.2079,-608.9465C731.658,-600.776 731.0627,-591.9318 730.4864,-583.3697"/>
<polygon fill="#000000" stroke="#000000" points="733.961,-582.8723 729.7972,-573.13 726.9768,-583.3425 733.961,-582.8723"/>
</g>
<!-- 8 -->
<g id="node23" class="node">
<title>8</title>
<polygon fill="#eca36f" stroke="#000000" points="956,-565.5 857,-565.5 857,-512.5 956,-512.5 956,-565.5"/>
<text text-anchor="middle" x="906.5" y="-550.3" font-family="Times,serif" font-size="14.00" fill="#000000">gini = 0.337</text>
<text text-anchor="middle" x="906.5" y="-535.3" font-family="Times,serif" font-size="14.00" fill="#000000">samples = 28</text>
<text text-anchor="middle" x="906.5" y="-520.3" font-family="Times,serif" font-size="14.00" fill="#000000">value = [22, 6]</text>
</g>
<!-- 2&#45;&gt;8 -->
<g id="edge22" class="edge">
<title>2&#45;&gt;8</title>
<path fill="none" stroke="#000000" d="M790.8192,-608.9465C811.1311,-596.6649 833.9608,-582.8609 853.9389,-570.7811"/>
<polygon fill="#000000" stroke="#000000" points="855.857,-573.7115 862.6033,-565.5422 852.235,-567.7213 855.857,-573.7115"/>
</g>
<!-- 19 -->
<g id="node19" class="node">
<title>19</title>
<polygon fill="#aad5f4" stroke="#000000" points="702,-469 571,-469 571,-401 702,-401 702,-469"/>
<text text-anchor="middle" x="636.5" y="-453.8" font-family="Times,serif" font-size="14.00" fill="#000000">Amount &lt;= 12296.5</text>
<text text-anchor="middle" x="636.5" y="-438.8" font-family="Times,serif" font-size="14.00" fill="#000000">gini = 0.463</text>
<text text-anchor="middle" x="636.5" y="-423.8" font-family="Times,serif" font-size="14.00" fill="#000000">samples = 55</text>
<text text-anchor="middle" x="636.5" y="-408.8" font-family="Times,serif" font-size="14.00" fill="#000000">value = [20, 35]</text>
</g>
<!-- 7&#45;&gt;19 -->
<g id="edge18" class="edge">
<title>7&#45;&gt;19</title>
<path fill="none" stroke="#000000" d="M697.7032,-504.9465C689.847,-495.968 681.2788,-486.1758 673.1087,-476.8385"/>
<polygon fill="#000000" stroke="#000000" points="675.5829,-474.351 666.3637,-469.13 670.3148,-478.9606 675.5829,-474.351"/>
</g>
<!-- 20 -->
<g id="node22" class="node">
<title>20</title>
<polygon fill="#efb388" stroke="#000000" points="812.5,-461.5 720.5,-461.5 720.5,-408.5 812.5,-408.5 812.5,-461.5"/>
<text text-anchor="middle" x="766.5" y="-446.3" font-family="Times,serif" font-size="14.00" fill="#000000">gini = 0.408</text>
<text text-anchor="middle" x="766.5" y="-431.3" font-family="Times,serif" font-size="14.00" fill="#000000">samples = 7</text>
<text text-anchor="middle" x="766.5" y="-416.3" font-family="Times,serif" font-size="14.00" fill="#000000">value = [5, 2]</text>
</g>
<!-- 7&#45;&gt;20 -->
<g id="edge21" class="edge">
<title>7&#45;&gt;20</title>
<path fill="none" stroke="#000000" d="M740.2701,-504.9465C744.318,-494.1519 748.807,-482.1813 752.9104,-471.2389"/>
<polygon fill="#000000" stroke="#000000" points="756.3125,-472.1344 756.5467,-461.5422 749.7582,-469.6765 756.3125,-472.1344"/>
</g>
<!-- 21 -->
<g id="node20" class="node">
<title>21</title>
<polygon fill="#7dbfee" stroke="#000000" points="635.5,-357.5 529.5,-357.5 529.5,-304.5 635.5,-304.5 635.5,-357.5"/>
<text text-anchor="middle" x="582.5" y="-342.3" font-family="Times,serif" font-size="14.00" fill="#000000">gini = 0.381</text>
<text text-anchor="middle" x="582.5" y="-327.3" font-family="Times,serif" font-size="14.00" fill="#000000">samples = 43</text>
<text text-anchor="middle" x="582.5" y="-312.3" font-family="Times,serif" font-size="14.00" fill="#000000">value = [11, 32]</text>
</g>
<!-- 19&#45;&gt;21 -->
<g id="edge19" class="edge">
<title>19&#45;&gt;21</title>
<path fill="none" stroke="#000000" d="M618.8184,-400.9465C613.0991,-389.9316 606.744,-377.6922 600.9692,-366.5703"/>
<polygon fill="#000000" stroke="#000000" points="603.996,-364.8043 596.2815,-357.5422 597.7835,-368.03 603.996,-364.8043"/>
</g>
<!-- 22 -->
<g id="node21" class="node">
<title>22</title>
<polygon fill="#eeab7b" stroke="#000000" points="745.5,-357.5 653.5,-357.5 653.5,-304.5 745.5,-304.5 745.5,-357.5"/>
<text text-anchor="middle" x="699.5" y="-342.3" font-family="Times,serif" font-size="14.00" fill="#000000">gini = 0.375</text>
<text text-anchor="middle" x="699.5" y="-327.3" font-family="Times,serif" font-size="14.00" fill="#000000">samples = 12</text>
<text text-anchor="middle" x="699.5" y="-312.3" font-family="Times,serif" font-size="14.00" fill="#000000">value = [9, 3]</text>
</g>
<!-- 19&#45;&gt;22 -->
<g id="edge20" class="edge">
<title>19&#45;&gt;22</title>
<path fill="none" stroke="#000000" d="M657.1286,-400.9465C663.8678,-389.8215 671.3637,-377.4473 678.1545,-366.237"/>
<polygon fill="#000000" stroke="#000000" points="681.2339,-367.9087 683.4216,-357.5422 675.2467,-364.2818 681.2339,-367.9087"/>
</g>
</g>
</svg>
